<?xml version="1.0" encoding="UTF-8"?>
<!-- Pixeliges Lecker-Logo für das Login-Ladeoverlay; reine Deko-Grafik, wird als <img> eingebunden. -->
<svg id="Ebene_8" data-name="Ebene 8" xmlns="http://www.w3.org/2000/svg" viewBox="0 0 1080 609.54">
  <defs>
    <style>
      .cls-1 {
        fill: #1d1d1b;
      }

      .cls-2 {
        fill: #fcff4a;
      }
    </style>
  </defs>
  <path d="M1001.63,221.99c-2.13-14.32-9.34-27.51-21.3-39.3-.38-.39-.77-.78-1.17-1.17-.38-.39-.77-.78-1.17-1.17-.38-.39-.77-.78-1.17-1.17-.38-.39-.77-.78-1.17-1.17-.38-.39-.77-.78-1.17-1.17-.38-.39-.77-.78-1.17-1.17-.38-.39-.77-.78-1.17-1.17-.38-.39-.77-.78-1.17-1.17-.38-.39-.77-.78-1.17-1.17-.38-.39-.77-.78-1.17-1.17-.38-.39-.77-.78-1.17-1.17-.38-.39-.77-.78-1.17-1.17-.38-.39-.77-.78-1.17-1.17-.38-.39-.77-.78-1.17-1.17-.38-.39-.77-.78-1.17-1.17-.38-.39-.77-.78-1.17-1.17-14.87-15.17-37.53-28.08-67.38-38.22-48.41-16.43-113.64-25.11-188.63-25.11-52.7,0-108.1,4.26-164.68,12.67-90.15,13.4-166.02,32.56-226.47,57.13-.34-1.43-.91-2.81-1.72-4.08-.67-1.05-1.48-1.98-2.4-2.79-.37-.41-.75-.8-1.17-1.17-.37-.41-.75-.8-1.17-1.17-.37-.41-.75-.8-1.17-1.17-.37-.41-.75-.8-1.17-1.17-.37-.41-.75-.8-1.17-1.17-.37-.41-.75-.8-1.17-1.17-.37-.41-.75-.8-1.17-1.17-.37-.41-.75-.8-1.17-1.17-.37-.41-.75-.8-1.17-1.17-.37-.41-.75-.8-1.17-1.17-.37-.41-.75-.8-1.17-1.17-.37-.41-.75-.8-1.17-1.17-.37-.41-.75-.8-1.17-1.17-.37-.41-.75-.8-1.17-1.17-.37-.41-.75-.8-1.17-1.17-.37-.41-.75-.8-1.17-1.17-2.53-2.86-6.22-4.57-10.06-4.57s-7.39,1.65-9.93,4.52c-21.75,24.63-33.93,32.94-48.26,32.94-10.2,0-22.87-3.93-43.76-13.56-1.79-.83-3.69-1.25-5.62-1.25-5.47,0-10.45,3.48-12.41,8.66-1.97,5.2-.53,10.95,3.66,14.64.01.01.02.02.04.03.35.39.72.78,1.13,1.13.01.01.02.02.04.03.35.39.72.78,1.13,1.13.01.01.02.02.04.03.35.39.72.78,1.13,1.13.01.01.02.02.04.03.35.39.72.78,1.13,1.13.01.01.02.02.04.03.35.39.72.78,1.13,1.13.01.01.02.02.04.03.35.39.72.78,1.13,1.13.01.01.02.02.04.03.35.39.72.78,1.13,1.13.01.01.02.02.04.03.35.39.72.78,1.13,1.13.01.01.02.02.04.03.35.39.72.78,1.13,1.13.01.01.02.02.04.03.35.39.72.78,1.13,1.13.01.01.02.02.04.03.35.39.72.78,1.13,1.13.01.01.02.02.04.03.35.39.72.78,1.13,1.13.01.01.02.02.04.03.35.39.72.78,1.13,1.13.01.01.02.02.04.03.35.39.72.78,1.13,1.13.01.01.02.02.04.03.35.39.72.78,1.13,1.13.01.01.02.02.04.03.35.39.72.78,1.13,1.13.01.01.02.02.04.03.35.39.72.78,1.13,1.13.74.65,1.45,1.28,2.16,1.92,11.65,14.21,13.65,25.93,7.94,44.28-.27-.29-.55-.56-.84-.82-2.02-2.4-4.98-3.72-8-3.72-1.68,0-3.38.4-4.95,1.25-34.72,18.69-61.34,38.36-79.13,58.47-19.72,22.3-28.1,44.57-24.88,66.18,2.13,14.33,9.34,27.51,21.3,39.3.38.39.77.78,1.17,1.17.38.39.77.78,1.17,1.17.38.39.77.78,1.17,1.17.38.39.77.78,1.17,1.17.38.39.77.78,1.17,1.17.38.39.77.78,1.17,1.17.38.39.77.78,1.17,1.17.38.39.77.78,1.17,1.17.38.39.77.78,1.17,1.17.38.39.77.78,1.17,1.17.38.39.77.78,1.17,1.17.38.39.77.78,1.17,1.17.38.39.77.78,1.17,1.17.38.39.77.78,1.17,1.17.38.39.77.78,1.17,1.17.38.39.77.78,1.17,1.17,14.87,15.17,37.52,28.08,67.37,38.21,48.4,16.43,113.63,25.11,188.64,25.11,52.7,0,108.11-4.26,164.68-12.67,142.9-21.24,270.27-65.86,340.73-119.37,4.35-3.3,5.43-9.4,2.47-13.99-.55-.86-1.22-1.6-1.96-2.24-.36-.43-.75-.81-1.17-1.17-.36-.43-.75-.81-1.17-1.17-.36-.43-.75-.81-1.17-1.17-.36-.43-.75-.81-1.17-1.17-.36-.43-.75-.81-1.17-1.17-.36-.43-.75-.81-1.17-1.17-.36-.43-.75-.81-1.17-1.17-.36-.43-.75-.81-1.17-1.17-.36-.43-.75-.81-1.17-1.17-.36-.43-.75-.81-1.17-1.17-.36-.43-.75-.81-1.17-1.17-.36-.43-.75-.81-1.17-1.17-.36-.43-.75-.81-1.17-1.17-.36-.43-.75-.81-1.17-1.17-.36-.43-.75-.81-1.17-1.17-.36-.43-.75-.81-1.17-1.17-2.02-2.41-4.98-3.73-8.01-3.73-1.68,0-3.38.4-4.95,1.25-72.6,39.07-173.85,69.69-285.11,86.23-55.56,8.26-109.93,12.44-161.61,12.44-72.73,0-135.64-8.3-181.9-24-20.92-7.1-36.1-14.85-47.05-22.65-3.98-6.17-5.92-12-6.68-17.15-1.97-13.25,2.24-33.59,29.75-59.42.31.34.64.65.98.96.37.41.75.8,1.17,1.17.37.41.75.8,1.17,1.17.37.41.75.8,1.17,1.17.37.41.75.8,1.17,1.17.37.41.75.8,1.17,1.17.37.41.75.8,1.17,1.17.37.41.75.8,1.17,1.17.37.41.75.8,1.17,1.17.37.41.75.8,1.17,1.17,2.52,2.86,6.22,4.57,10.06,4.57s7.39-1.65,9.93-4.52c21.75-24.63,33.93-32.94,48.26-32.94,10.2,0,22.87,3.93,43.76,13.56,1.79.83,3.69,1.25,5.62,1.25h0c5.46,0,10.45-3.48,12.41-8.65,1.97-5.2.53-10.94-3.66-14.64-.01-.01-.03-.02-.04-.03-.35-.39-.72-.77-1.13-1.13-.01-.01-.03-.02-.04-.03-.35-.39-.72-.77-1.13-1.13-.01-.01-.03-.02-.04-.03-.35-.39-.72-.77-1.13-1.13-.01-.01-.03-.02-.04-.03-.35-.39-.72-.77-1.13-1.13-.01-.01-.03-.02-.04-.03-.35-.39-.72-.77-1.13-1.13-.01-.01-.03-.02-.04-.03-.35-.39-.72-.77-1.13-1.13-.01-.01-.03-.02-.04-.03-.35-.39-.72-.77-1.13-1.13-.01-.01-.03-.02-.04-.03-.35-.39-.72-.77-1.13-1.13-.01-.01-.03-.02-.04-.03-.35-.39-.72-.77-1.13-1.13-.01-.01-.03-.02-.04-.03-.35-.39-.72-.77-1.13-1.13-.01-.01-.03-.02-.04-.03-.35-.39-.72-.77-1.13-1.13-.01-.01-.03-.02-.04-.03-.35-.39-.72-.77-1.13-1.13-.01-.01-.03-.02-.04-.03-.35-.39-.72-.77-1.13-1.13-.01-.01-.03-.02-.04-.03-.35-.39-.72-.77-1.13-1.13-.01-.01-.03-.02-.04-.03-.35-.39-.72-.77-1.13-1.13-.01-.01-.03-.02-.04-.03-.35-.39-.72-.77-1.13-1.13-.01-.01-.03-.02-.04-.03-.35-.39-.72-.77-1.13-1.13-.53-.47-1.02-.91-1.54-1.37-4.2-5.05-7.09-9.57-8.93-13.9,56.26-22.46,122.74-38.66,213.73-52.19,55.56-8.26,109.94-12.45,161.61-12.45,72.74,0,135.65,8.3,181.91,24,20.91,7.1,36.09,14.85,47.04,22.65,3.98,6.17,5.92,12.01,6.68,17.15,2.33,15.66-3.97,41.22-47.18,74.04-4.35,3.3-5.43,9.4-2.47,13.99.55.86,1.22,1.6,1.96,2.24.36.43.75.81,1.17,1.17.36.43.75.81,1.17,1.17.36.43.75.81,1.17,1.17.36.43.75.81,1.17,1.17.36.43.75.81,1.17,1.17.36.43.75.81,1.17,1.17.36.43.75.81,1.17,1.17.36.43.75.81,1.17,1.17.36.43.75.81,1.17,1.17.36.43.75.81,1.17,1.17.36.43.75.81,1.17,1.17.36.43.75.81,1.17,1.17.36.43.75.81,1.17,1.17.36.43.75.81,1.17,1.17.36.43.75.81,1.17,1.17.36.43.75.81,1.17,1.17,2.02,2.41,4.98,3.73,8.01,3.73,1.68,0,3.38-.4,4.95-1.25,34.72-18.68,61.34-38.36,79.13-58.47,19.72-22.31,28.1-44.57,24.88-66.18Z"/>
  <g>
    <path class="cls-2" d="M135.25,342.23c-4.08-27.43,15-56.41,51.2-83.91-66.23,35.65-104.22,76.23-98.62,113.9,11.54,77.67,203.59,113.47,428.95,79.98,140.91-20.94,261.4-64.03,329.15-112.36.64-.45.03-1.43-.66-1.07-69.99,36.14-169.06,66.79-281.07,83.44-225.36,33.49-417.4-2.31-428.94-79.98Z"/>
    <path class="cls-2" d="M971.47,203.71c-11.54-77.66-203.59-113.47-428.95-79.98-116.39,17.3-207.13,43.7-272.71,79.28.02-12.83,5.1-27.65,14.51-48.06,1.37-2.98-2.54-5.53-4.71-3.07-37.12,42.02-53.32,45.44-104.24,21.95-2.98-1.37-5.53,2.54-3.07,4.71,42.02,37.12,45.44,53.32,21.95,104.24-1.37,2.98,2.54,5.53,4.71,3.07,37.12-42.02,53.32-45.44,104.24-21.95,2.98,1.37,5.53-2.54,3.07-4.71-22-19.43-33.4-33.13-35.92-49.08,60.86-25.45,132.63-42.69,224.76-56.38,225.36-33.49,417.4,2.31,428.94,79.98,4.08,27.44-15,56.42-51.2,83.91,66.23-35.65,104.22-76.23,98.62-113.9Z"/>
  </g>
  <path d="M847.65,160.92c-4.53-7.46-10.16-14.45-16.82-20.9-.75-.77-1.5-1.53-2.28-2.28-.75-.76-1.5-1.52-2.28-2.28-.75-.77-1.5-1.53-2.28-2.28-.75-.76-1.5-1.52-2.27-2.27-.75-.76-1.5-1.52-2.28-2.28-.75-.76-1.5-1.52-2.28-2.28-.75-.76-1.5-1.52-2.28-2.28-.75-.76-1.5-1.52-2.28-2.28-.75-.76-1.5-1.52-2.28-2.28-.75-.76-1.5-1.52-2.28-2.28-.75-.76-1.5-1.52-2.28-2.28-.75-.76-1.5-1.52-2.27-2.27-.75-.77-1.5-1.53-2.28-2.28-.75-.76-1.5-1.52-2.28-2.28-.75-.77-1.5-1.53-2.28-2.28-.75-.76-1.5-1.52-2.27-2.27-.75-.76-1.5-1.52-2.28-2.28-13.07-13.4-30.38-24.58-51.13-32.9-29.23-11.72-64.09-17.67-103.61-17.67-62.6,0-129.35,15.24-187.95,42.91-59.96,28.31-104.82,66.66-126.34,107.97-18.37,35.29-18.56,71.09-.53,100.81,4.53,7.46,10.16,14.45,16.82,20.9.75.76,1.5,1.52,2.28,2.28.75.77,1.5,1.53,2.28,2.28.75.76,1.5,1.52,2.27,2.27.75.76,1.5,1.52,2.28,2.28.75.76,1.5,1.52,2.27,2.27.75.77,1.5,1.53,2.28,2.28.75.76,1.5,1.52,2.28,2.28.75.76,1.5,1.52,2.28,2.28.75.76,1.5,1.52,2.28,2.28.75.76,1.5,1.52,2.28,2.28.75.76,1.5,1.52,2.28,2.28.75.76,1.5,1.52,2.28,2.28.75.76,1.5,1.52,2.28,2.28.75.77,1.5,1.53,2.28,2.28.75.76,1.5,1.52,2.27,2.27.75.76,1.5,1.52,2.28,2.28.75.76,1.5,1.52,2.27,2.27,13.07,13.4,30.38,24.58,51.13,32.91,29.23,11.72,64.09,17.67,103.61,17.67,62.6,0,129.35-15.24,187.95-42.91,59.96-28.31,104.82-66.66,126.34-107.97,18.37-35.29,18.56-71.09.53-100.81Z"/>
  <path class="cls-2" d="M637.42,71.47c-123.24,0-255.73,62.56-295.92,139.74-40.19,77.18,27.14,139.74,150.39,139.74s255.73-62.56,295.92-139.74c40.19-77.18-27.14-139.74-150.39-139.74Z"/>
  <g>
    <path class="cls-1" d="M644.62,226.99c-6.19,5.52-12.61,10.71-19.19,15.53,1.17-6.43.24-12.52-2.85-17.51-4.24-6.84-12.04-10.77-21.4-10.77-17.02,0-36.81,12.95-45.04,29.49-6.68,13.41-10.07,20.26-11.33,22.92-3.52,7.4-13.54,15.81-20.58,17.6-4.69.47-9.33.72-13.9.72-41.01,0-66.94-18.98-71.17-52.08-.63-4.93-4.95-8.73-9.91-8.48-5.58.28-9.65,5.23-8.97,10.67,2.71,21.63,12.9,39.45,29.46,51.52,15.58,11.36,36.53,17.36,60.58,17.36,4,0,8.06-.18,12.15-.5.32.03.64.05.97.05s.62-.02.94-.05c1-.1,2.01-.26,3.03-.47,23.72-2.59,48.57-10.4,72.58-22.6.35-.14.7-.3,1.05-.5.17-.1.34-.21.51-.31,19.59-10.12,38.59-23.14,55.91-38.62,4.07-3.64,4.27-10,.3-13.89-3.59-3.51-9.4-3.45-13.15-.11ZM561.96,274.81c1.52-3.2,6.51-13.23,11.18-22.61,5.03-10.1,18.13-18.96,28.04-18.96,1.25,0,4.26.17,5.25,1.77.78,1.26.91,4.32-1.31,8.78l-4.01,8.05c-2.08,4.18-5.88,9.56-9.31,11.48-1.25.64-2.5,1.26-3.75,1.87l6.03-12.14c1.47-2.97.26-6.57-2.7-8.04h0c-2.97-1.47-6.57-.26-8.04,2.7l-7.36,14.82-.54,1.09c-1.17,2.4-3.01,6.13-5.37,9.41-2.92,1.12-5.85,2.16-8.77,3.13.24-.45.46-.9.68-1.34Z"/>
    <path class="cls-1" d="M457.5,175.63c1.66,1.16,3.56,1.72,5.45,1.72,2.99,0,5.94-1.41,7.79-4.05,10.67-15.22,37.81-28.08,59.25-28.08,10.57,0,15.94,3.11,17.33,5.77,1.32,2.53.17,6.69-3.13,11.4-3.01,4.3-1.97,10.22,2.33,13.23,4.29,3.01,10.22,1.97,13.23-2.33,10.29-14.67,7.19-25.77,4.43-31.08-3.11-5.98-11.69-16.01-34.19-16.01-27.73,0-60.59,15.89-74.81,36.18-3.01,4.3-1.97,10.22,2.33,13.23Z"/>
    <path class="cls-1" d="M701.51,142.22c-3.11-5.98-11.69-16.01-34.19-16.01-27.73,0-60.59,15.89-74.81,36.18-3.01,4.3-1.97,10.22,2.33,13.23,1.66,1.16,3.56,1.72,5.45,1.72,2.99,0,5.94-1.41,7.79-4.05,10.67-15.22,37.81-28.08,59.25-28.08,10.57,0,15.94,3.11,17.33,5.77,1.32,2.53.17,6.69-3.13,11.4-3.01,4.3-1.97,10.22,2.33,13.23,4.29,3.01,10.22,1.97,13.23-2.33,10.29-14.67,7.19-25.77,4.43-31.08Z"/>
  </g>
  <g>
    <path d="M900.36,377.45c-.18-.44-.37-.86-.57-1.28-.08-.21-.15-.43-.23-.64-.17-.41-.36-.81-.55-1.21-.09-.24-.16-.48-.26-.72-.17-.41-.36-.81-.55-1.21-.09-.24-.16-.48-.26-.72-.17-.41-.36-.81-.55-1.21-.09-.24-.16-.48-.26-.72-.17-.41-.36-.81-.55-1.21-.09-.24-.16-.48-.26-.72-.17-.41-.36-.81-.55-1.21-.09-.24-.16-.48-.26-.72-.17-.41-.36-.81-.55-1.21-.09-.24-.16-.48-.26-.72-.17-.41-.36-.81-.55-1.21-.09-.24-.16-.48-.26-.72-.17-.41-.36-.81-.55-1.21-.09-.24-.16-.48-.26-.72-.17-.41-.36-.81-.55-1.21-.09-.24-.16-.48-.26-.72-.17-.41-.36-.81-.55-1.21-.09-.24-.16-.48-.26-.72-.17-.41-.36-.81-.55-1.21-.09-.24-.16-.48-.26-.72-.17-.41-.36-.81-.55-1.21-.09-.24-.16-.48-.26-.72-.17-.41-.36-.81-.55-1.21-.09-.24-.16-.48-.26-.72-.16-.4-.34-.78-.53-1.17-.09-.25-.18-.51-.28-.76-3.24-8.12-10.97-12.41-22.34-12.41h-25.91c-6.22,0-13.15,1.69-20.16,4.86-3.31-3.17-8.23-4.86-14.39-4.86h-17.27c-4.7,0-9.81.97-15.05,2.81-3.65-1.86-8.2-2.81-13.56-2.81h-86.37c-9.04,0-18.96,2.72-29.08,7.91-3.02-5.12-8.9-7.91-16.8-7.91h-34.55c-1.16,0-2.35.07-3.56.18,0-.01,0-.03-.01-.04-.16-.39-.34-.76-.53-1.13-.09-.26-.17-.54-.28-.8-.16-.39-.34-.76-.53-1.13-.09-.26-.17-.54-.28-.8-.16-.39-.34-.76-.53-1.13-.09-.26-.17-.54-.28-.8-.16-.39-.34-.76-.53-1.13-.09-.26-.17-.54-.28-.8-2.63-6.27-8.92-9.72-17.71-9.72h-17.27c-8.88,0-19.24,3.45-29.15,9.73-.25.16-.49.32-.74.48-3.28,2.14-6.37,4.52-9.23,7.07h-85.89c-6.66,0-13.81,1.48-21.16,4.34-3.99-2.86-9.41-4.34-16.08-4.34h-86.37c-11.31,0-24,4.25-36.71,12.29-9.85,6.23-18.19,13.82-24.5,22.26h-13.48c1.26-4.92,1.14-9.44-.44-13.24-.14-.32-.29-.63-.44-.94-.11-.33-.23-.66-.37-.99-.14-.32-.29-.63-.44-.94-.11-.33-.23-.66-.37-.99-.14-.32-.29-.63-.44-.94-.11-.33-.23-.66-.37-.99-.14-.32-.29-.63-.44-.94-.11-.33-.23-.66-.37-.99-.14-.32-.29-.63-.44-.94-.11-.33-.23-.66-.37-.99-.14-.32-.29-.63-.44-.94-.11-.33-.23-.66-.37-.99-.14-.32-.29-.63-.44-.94-.11-.33-.23-.66-.37-.99-.14-.32-.29-.63-.44-.94-.11-.33-.23-.66-.37-.99-.14-.32-.29-.63-.44-.94-.11-.33-.23-.66-.37-.99-.14-.32-.29-.63-.44-.94-.11-.33-.23-.66-.37-.99-.14-.32-.29-.63-.44-.94-.11-.33-.23-.66-.37-.99-.14-.32-.29-.63-.44-.94-.11-.33-.23-.66-.37-.99-.14-.32-.29-.63-.44-.94-.11-.33-.23-.66-.37-.99-.14-.32-.29-.63-.44-.94-.11-.33-.23-.66-.37-.99-.14-.32-.29-.63-.44-.94-.11-.33-.23-.66-.37-.99-2.63-6.27-8.92-9.72-17.71-9.72h-17.27c-8.88,0-19.23,3.45-29.15,9.73-.25.16-.5.32-.74.48-9.5,6.22-17.49,14.39-22.51,23.02l-35.06,60.32c-6.5,11.18-8.27,21.33-5.12,29.34.03.07.06.15.09.22.15.36.32.69.48,1.04.08.22.15.45.23.67.03.07.06.15.09.22.15.36.32.7.48,1.04.08.22.15.45.23.67.03.07.06.15.09.22.15.36.32.69.48,1.04.08.22.15.45.23.67.03.07.06.15.09.22.15.36.32.69.48,1.04.08.22.15.45.23.67.03.07.06.15.09.22.15.36.32.69.48,1.04.08.22.15.45.23.67.03.07.06.15.09.22.15.36.32.7.48,1.04.08.22.15.45.23.67.03.07.06.15.09.22.15.36.32.69.48,1.04.08.22.15.45.23.67.03.07.06.15.09.22.15.36.32.69.48,1.04.08.22.15.45.23.67.03.07.06.15.09.22.15.36.32.69.48,1.04.08.22.15.45.23.67.03.07.06.15.09.22.15.36.32.7.48,1.04.08.22.15.45.23.67.03.07.06.15.09.22.15.36.32.69.48,1.04.08.22.15.45.23.67.03.07.06.15.09.22.15.36.32.69.48,1.04.08.22.15.45.23.67.03.07.06.15.09.22.15.36.32.7.48,1.04.08.22.15.45.23.67.03.07.06.15.09.22.15.36.32.69.48,1.04.08.22.15.45.23.67.03.07.06.15.09.22.15.36.32.69.48,1.04.08.22.15.45.23.67.03.07.06.15.09.22,3.33,7.96,11.11,12.16,22.51,12.16h86.37c6.61,0,13.71-1.46,21.02-4.29,4.03,2.83,9.5,4.29,16.22,4.29h95.01c4.64,0,9.72-.96,14.94-2.78,3.69,1.84,8.27,2.78,13.67,2.78h86.37c5.31,0,10.95-.95,16.76-2.79,3.13,1.83,7.14,2.79,11.84,2.79,8.54,0,18.56-3.24,28.19-9.13.25-.15.5-.31.75-.46,7.19-4.55,13.53-10.18,18.44-16.32h14.3c.05.15.08.31.14.46.12.31.24.62.38.92.08.18.18.35.27.52.05.16.09.33.15.48.12.31.24.62.38.92.08.18.18.35.27.52.05.16.09.33.15.48.12.31.24.62.38.92.08.18.18.35.27.52.05.16.09.33.15.48.12.31.24.62.38.92.08.18.18.35.27.52.05.16.09.33.15.48.12.31.24.62.38.92.08.18.18.35.27.52.05.16.09.33.15.48.12.31.24.62.38.92.08.18.18.35.27.52.05.16.09.33.15.48.12.31.24.62.38.92.08.18.18.35.27.52.05.16.09.33.15.48.12.31.24.62.38.92.08.18.18.35.27.52.05.16.09.33.15.48.12.31.24.62.38.92,2.79,5.89,9.08,9.14,17.72,9.14h17.27c4.64,0,9.72-.96,14.94-2.78,3.69,1.84,8.27,2.78,13.67,2.78h95.01c3.41,0,7.06-.52,10.82-1.51,2.63,1,5.7,1.51,9.15,1.51,8.54,0,18.56-3.24,28.19-9.13.25-.15.5-.31.74-.46,9.92-6.27,18.22-14.62,23.38-23.5l.85-1.46h53.28c8.54,0,18.55-3.24,28.19-9.12.25-.15.5-.31.75-.47,9.92-6.27,18.22-14.62,23.38-23.5l5.02-8.64c6.49-11.16,8.17-21.3,4.87-29.32Z"/>
    <path class="cls-2" d="M124.41,429.72c-4.86,0-7.99-1.66-9.38-4.99-1.34-3.42-.63-7.51,2.14-12.28l35.06-60.32c1.41-2.43,3.42-4.5,6.04-6.21,2.7-1.71,5.27-2.56,7.7-2.56h17.27c2.34,0,3.86.86,4.58,2.56.71,1.71.39,3.73-.97,6.07l-25.1,43.18c-1.41,2.43-3.47,4.5-6.17,6.21-2.65,1.62-5.15,2.43-7.48,2.43h-4.32c-1.26,0-2.56.45-3.89,1.35-1.28.81-2.26,1.8-2.94,2.97-.73,1.26-.93,2.29-.59,3.1s1.14,1.21,2.4,1.21h38.87c2.34,0,4.83-.81,7.48-2.43,2.7-1.71,4.76-3.78,6.17-6.21l-.08.13c1.41-2.43,3.42-4.5,6.04-6.21,2.7-1.71,5.27-2.56,7.7-2.56h34.55c2.34,0,3.86.86,4.58,2.56.71,1.71.39,3.73-.97,6.07l-5.02,8.64c-2.82,4.86-6.91,8.95-12.27,12.28-5.36,3.33-10.37,4.99-15.05,4.99h-86.37ZM248.02,429.72c-4.86,0-7.99-1.66-9.38-4.99-1.34-3.42-.63-7.51,2.14-12.28l20.08-34.55c2.77-4.77,6.79-8.82,12.05-12.15,5.4-3.42,10.49-5.13,15.26-5.13h86.37c4.77,0,7.82,1.71,9.17,5.13,1.43,3.42.79,7.47-1.93,12.15l-5.02,8.64c-2.82,4.86-6.91,8.95-12.27,12.28-5.36,3.33-10.37,4.99-15.05,4.99h-64.78c-1.26,0-2.56.45-3.89,1.35-1.28.81-2.26,1.8-2.94,2.97-.73,1.26-.93,2.29-.59,3.1s1.14,1.21,2.4,1.21h73.41c2.34,0,3.86.86,4.58,2.56.71,1.71.39,3.73-.97,6.07s-3.47,4.5-6.17,6.21c-2.65,1.62-5.15,2.43-7.48,2.43h-95.01ZM328.56,395.18c2.34,0,4.83-.81,7.48-2.43,2.7-1.71,4.76-3.78,6.17-6.21,1.36-2.34,1.68-4.36.97-6.07-.72-1.71-2.24-2.56-4.58-2.56h-51.82c-2.43,0-5,.86-7.7,2.56-2.61,1.71-4.6,3.73-5.96,6.07-1.41,2.43-1.81,4.5-1.18,6.21.77,1.62,2.37,2.43,4.8,2.43h51.82ZM371.63,429.72c-4.86,0-7.99-1.66-9.38-4.99-1.34-3.42-.63-7.51,2.14-12.28l20.08-34.55c2.77-4.77,6.79-8.82,12.05-12.15s10.49-5.13,15.26-5.13h95.01c2.34,0,3.86.86,4.58,2.56.71,1.71.39,3.73-.97,6.07s-3.47,4.5-6.17,6.21c-2.65,1.62-5.15,2.43-7.48,2.43h-69.09c-2.43,0-5,.86-7.7,2.56-2.61,1.71-4.6,3.73-5.96,6.07-2.77,4.77-3.49,8.86-2.14,12.28,1.48,3.33,4.61,4.99,9.38,4.99h60.46c2.34,0,3.86.86,4.58,2.56.71,1.71.39,3.73-.97,6.07-2.82,4.86-6.91,8.95-12.27,12.28-5.36,3.33-10.37,4.99-15.05,4.99h-86.37ZM486.6,429.72c-2.43,0-4.03-.81-4.8-2.43-.63-1.71-.23-3.78,1.18-6.21l40.08-68.96c1.41-2.43,3.42-4.5,6.04-6.21,2.7-1.71,5.27-2.56,7.7-2.56h17.27c2.34,0,3.86.86,4.58,2.56.71,1.71.39,3.73-.97,6.07l-10.04,17.27c-1.41,2.43-1.81,4.5-1.18,6.21.77,1.62,2.37,2.43,4.8,2.43s4.83-.81,7.48-2.43c2.7-1.71,4.76-3.78,6.17-6.21l-.08.13c1.41-2.43,3.42-4.5,6.04-6.21,2.7-1.71,5.27-2.56,7.7-2.56h34.55c2.34,0,3.86.86,4.58,2.56.71,1.71.39,3.73-.97,6.07-1.41,2.43-3.47,4.5-6.17,6.21-2.65,1.62-5.15,2.43-7.48,2.43h-21.59c-1.26,0-2.56.45-3.89,1.35-1.28.81-2.26,1.8-2.94,2.97-.73,1.26-.93,2.29-.59,3.1s1.14,1.21,2.4,1.21h30.23c4.77,0,7.82,1.71,9.17,5.13,1.43,3.42.79,7.47-1.93,12.15l-10.04,17.27c-1.41,2.43-3.47,4.5-6.17,6.21-2.65,1.62-5.15,2.43-7.48,2.43h-17.27c-2.43,0-4.03-.81-4.8-2.43-.63-1.71-.23-3.78,1.18-6.21l5.02-8.64c1.36-2.34,1.68-4.36.97-6.07-.72-1.71-2.24-2.56-4.58-2.56h-51.82c-2.43,0-5,.86-7.7,2.56-2.61,1.71-4.6,3.73-5.96,6.07l-5.02,8.64c-1.41,2.43-3.47,4.5-6.17,6.21-2.65,1.62-5.15,2.43-7.48,2.43ZM618.85,429.72c-4.86,0-7.99-1.66-9.38-4.99-1.34-3.42-.63-7.51,2.14-12.28l20.08-34.55c2.77-4.77,6.79-8.82,12.05-12.15,5.4-3.42,10.49-5.13,15.26-5.13h86.37c4.77,0,7.82,1.71,9.17,5.13,1.43,3.42.79,7.47-1.93,12.15l-5.02,8.64c-2.82,4.86-6.91,8.95-12.27,12.28-5.36,3.33-10.37,4.99-15.05,4.99h-64.78c-1.26,0-2.56.45-3.89,1.35-1.28.81-2.26,1.8-2.94,2.97-.73,1.26-.93,2.29-.59,3.1s1.14,1.21,2.4,1.21h73.41c2.34,0,3.86.86,4.58,2.56.71,1.71.39,3.73-.97,6.07s-3.47,4.5-6.17,6.21c-2.65,1.62-5.15,2.43-7.48,2.43h-95.01ZM699.39,395.18c2.34,0,4.83-.81,7.48-2.43,2.7-1.71,4.76-3.78,6.17-6.21s1.68-4.36.97-6.07c-.72-1.71-2.24-2.56-4.58-2.56h-51.82c-2.43,0-5,.86-7.7,2.56-2.61,1.71-4.6,3.73-5.96,6.07s-1.81,4.5-1.18,6.21c.77,1.62,2.37,2.43,4.8,2.43h51.82ZM733.82,429.72c-2.43,0-4.03-.81-4.8-2.43-.63-1.71-.23-3.78,1.18-6.21l30.04-51.69c1.41-2.43,3.42-4.5,6.04-6.21,2.7-1.71,5.27-2.56,7.7-2.56h17.27c2.34,0,3.87.86,4.58,2.56.71,1.71.39,3.73-.97,6.07-1.41,2.43-1.81,4.5-1.18,6.21.77,1.62,2.37,2.43,4.8,2.43s4.83-.81,7.48-2.43c2.7-1.71,4.76-3.78,6.17-6.21l-.08.13c1.41-2.43,3.42-4.5,6.04-6.21,2.7-1.71,5.27-2.56,7.7-2.56h25.91c4.77,0,7.82,1.71,9.17,5.13,1.43,3.42.79,7.47-1.93,12.15l-5.02,8.64c-1.41,2.43-3.47,4.5-6.17,6.21-2.65,1.62-5.15,2.43-7.48,2.43h-69.1c-2.43,0-5,.86-7.7,2.56-2.61,1.71-4.6,3.73-5.96,6.07l-10.04,17.27c-1.41,2.43-3.47,4.5-6.17,6.21-2.65,1.62-5.15,2.43-7.48,2.43Z"/>
  </g>
  <path d="M913.1,471.3l-25.46-30.23c-.42-.5-.89-.97-1.37-1.41-.23-.24-.45-.47-.69-.69-.23-.24-.45-.47-.69-.69-.23-.24-.45-.47-.69-.69-.23-.24-.45-.47-.69-.69-.23-.24-.45-.47-.69-.69-.23-.24-.45-.47-.69-.69-.23-.24-.45-.47-.69-.69-.23-.24-.45-.47-.69-.69-.23-.24-.45-.47-.69-.69-.23-.24-.45-.47-.69-.69-.23-.24-.45-.47-.69-.69-.23-.24-.45-.47-.69-.69-.23-.24-.45-.47-.69-.69-.23-.24-.45-.47-.69-.69-.23-.24-.45-.47-.69-.69-.23-.24-.45-.47-.69-.69-3-3.11-7.25-4.84-12.12-4.84-5.84,0-12.93,2.66-17.46,7.8-.04-.03-.08-.06-.12-.09-.22-.24-.45-.48-.69-.69-.22-.24-.45-.48-.69-.69-.22-.24-.45-.48-.69-.69-.22-.24-.45-.48-.69-.69-2.09-2.23-5.04-3.53-8.23-3.53h-20.62c-3.68,0-7.18,1.74-9.43,4.52-.04-.04-.08-.08-.13-.12-.22-.24-.45-.47-.69-.69-2.1-2.34-5.13-3.71-8.4-3.71h-20.62c-4.65,0-9.05,2.79-10.94,6.95l-31.07,68.48c-1.56,3.44-1.28,7.36.75,10.51.54.84,1.2,1.59,1.93,2.24.22.24.45.48.69.69.22.24.45.48.69.69.22.24.45.48.69.69.22.24.45.48.69.69.22.24.45.48.69.69.22.24.45.48.69.69.22.24.45.48.69.69.22.24.45.48.69.69.22.24.45.48.69.69.22.24.45.48.69.69.22.24.45.48.69.69.22.24.45.48.69.69.22.24.45.48.69.69.22.24.45.48.69.69.22.24.45.48.69.69.22.24.45.48.69.69,2.09,2.23,5.04,3.53,8.23,3.53h20.62c3.68,0,7.19-1.75,9.43-4.52.04.04.08.08.13.12.22.24.45.47.69.69,2.1,2.34,5.13,3.71,8.4,3.71h20.62c4.65,0,9.05-2.79,10.94-6.95l.18-.39c.09.09.19.18.29.28.22.24.45.47.69.69.22.24.45.47.69.69.22.24.45.47.69.69.22.24.45.47.69.69.22.24.45.47.69.69,2.99,3.2,7.38,4.99,12.44,4.99,3.95,0,7.97-1.11,11.65-3.21l52.89-30.23c5.35-3.06,8.95-7.77,9.87-12.94.75-4.2-.38-8.45-3.08-11.66Z"/>
  <path class="cls-2" d="M763.4,505.69h-20.62c-.58,0-.88-.36-.68-.81l31.07-68.47c.2-.44.84-.81,1.41-.81h20.62c.58,0,.88.36.68.81l-31.07,68.47c-.2.44-.84.81-1.41.81ZM804.09,504.88l31.07-68.47c.2-.44-.1-.81-.68-.81h-20.62c-.58,0-1.21.36-1.41.81l-31.07,68.47c-.2.44.1.81.68.81h20.62c.58,0,1.21-.36,1.41-.81ZM852.14,440.42l-27.43,60.45c-2.51,5.53,4.9,8.29,11.73,4.39l52.89-30.23c4.24-2.42,6.02-6.35,3.98-8.77l-25.46-30.23c-3.29-3.91-13.21-1.14-15.71,4.39Z"/>
</svg>
